<svg width="512" height="512" viewBox="0 0 512 512" fill="none" xmlns="http://www.w3.org/2000/svg">
<g clip-path="url(#clip0_9_136)">
<path d="M301.419 140.387C305.98 140.387 309.677 136.69 309.677 132.129C309.677 127.568 305.98 123.871 301.419 123.871C296.859 123.871 293.161 127.568 293.161 132.129C293.161 136.69 296.859 140.387 301.419 140.387Z" fill="#434343"/>
<path d="M218.839 140.387C223.399 140.387 227.097 136.69 227.097 132.129C227.097 127.568 223.399 123.871 218.839 123.871C214.278 123.871 210.581 127.568 210.581 132.129C210.581 136.69 214.278 140.387 218.839 140.387Z" fill="#434343"/>
<path d="M255.562 180.81L264.687 176.244C268.635 174.27 271.575 170.876 272.97 166.689C274.366 162.502 274.052 158.026 272.078 154.079L268.387 146.696V132.129H251.871V148.645C251.871 149.925 252.168 151.197 252.738 152.337L257.305 161.462L248.18 166.028L255.562 180.81Z" fill="#434343"/>
<path d="M295.895 194.065L281.608 185.798C277.19 193.437 268.965 198.185 260.137 198.185C251.309 198.185 243.093 193.437 238.666 185.798L224.38 194.065C231.738 206.798 245.446 214.71 260.137 214.71C274.828 214.71 288.537 206.798 295.895 194.065Z" fill="#434343"/>
<path fill-rule="evenodd" clip-rule="evenodd" d="M170.129 365.074H143.538L142.853 362.333C139.087 347.245 128.702 335.255 112.323 333C108.522 332.477 106.313 332.579 102.5 333C84.1039 335.029 69.0421 347.245 65.2764 362.333L64.591 365.074H38L70.3221 408.173L55.953 465.691C50.2467 468.292 46.2581 474.023 46.2581 480.687V497.203C46.2581 506.312 53.6655 513.719 62.7742 513.719H145.355C154.463 513.719 161.871 506.312 161.871 497.203V480.687C161.871 474.023 157.882 468.292 152.176 465.691L137.807 408.173L170.129 365.074ZM122.389 414.623H85.7399L73.3528 464.171H134.776L122.389 414.623ZM83.4194 398.107H124.71L137.097 381.59H71.0323L83.4194 398.107ZM126.403 365.074C123.364 355.305 114.404 348.558 104.064 348.558C93.7254 348.558 84.7654 355.305 81.7265 365.074H126.403ZM62.7742 480.687V497.203H145.363L145.355 480.687H62.7742Z" fill="#434343"/>
<path fill-rule="evenodd" clip-rule="evenodd" d="M380.457 327.193C371.811 296.952 347.854 272.863 317.052 264.465L293.161 257.957V244.934C325.838 230.929 347.731 200.151 350.613 165.17H350.968C369.185 165.17 384 150.355 384 132.137C384 124.911 381.605 118.272 377.649 112.83C381.737 102.945 384 92.2921 384 81.6227C384 36.6163 347.384 0 302.377 0H227.906C201.711 0 178.713 17.2428 171.008 41.8106C151.337 44.9486 136.258 62.0346 136.258 82.5806C136.258 93.2666 138.265 103.63 142.014 113.548C138.389 118.85 136.258 125.242 136.258 132.129C136.258 150.346 151.073 165.161 169.29 165.161H169.645C172.536 200.151 194.428 230.929 227.097 244.926V257.949L203.206 264.465C172.28 272.904 147.844 297.348 139.429 328.266L155.367 332.602C162.246 307.307 182.247 287.306 207.542 280.403L228.905 274.581C233.266 287.727 245.537 297.29 260.129 297.29C274.713 297.29 286.984 287.719 291.344 274.581L312.716 280.403C337.532 287.174 356.889 306.391 364.23 330.595L380.457 327.193ZM350.968 115.613V148.645C360.076 148.645 367.484 141.238 367.484 132.129C367.484 123.02 360.076 115.613 350.968 115.613ZM184.32 57.8064H177.548C163.89 57.8064 152.774 68.9218 152.774 82.5806C152.774 89.2779 153.782 95.8183 155.59 102.161C159.777 100.236 164.393 99.0968 169.29 99.0968H174.79L210.581 72.2581L217.633 77.5432C236.164 91.4416 259.122 99.0968 282.294 99.0968C298.934 99.0968 315.598 95.1577 330.488 87.7172L333.684 86.1151C331.636 79.3187 325.392 74.3226 317.935 74.3226H293.161V57.8064H317.935C336.153 57.8064 350.968 72.6214 350.968 90.8387V99.0968C355.658 99.0968 360.109 100.113 364.156 101.888C366.295 95.3476 367.484 88.4852 367.484 81.6227C367.484 45.7249 338.275 16.5161 302.386 16.5161H227.914C207.434 16.5161 189.663 31.0916 185.641 51.167L184.32 57.8064ZM169.29 115.613C160.182 115.613 152.774 123.02 152.774 132.129C152.774 141.246 160.182 148.645 169.29 148.645H169.299L169.29 115.613ZM243.613 264.258C243.613 273.367 251.02 280.774 260.129 280.774C269.238 280.774 276.645 273.367 276.645 264.266V244.934C276.645 238.311 280.576 232.357 286.662 229.756C315.689 217.319 334.443 188.87 334.443 157.291L334.452 103.961C318.15 111.5 300.247 115.613 282.294 115.613C256.776 115.613 231.465 107.561 210.622 92.8702L185.806 111.484L185.815 157.291C185.823 188.87 204.577 217.311 233.604 229.756C239.682 232.365 243.613 238.328 243.613 244.934V264.258Z" fill="#434343"/>
<path fill-rule="evenodd" clip-rule="evenodd" d="M326.968 365.074H300.377L299.691 362.333C295.926 347.245 285.339 336.413 269.161 333C262.85 331.669 258.956 331.669 252.645 333C236.467 336.413 225.881 347.245 222.115 362.333L221.43 365.074H194.839L227.161 408.173L212.792 465.691C207.085 468.292 203.097 474.023 203.097 480.687V497.203C203.097 506.312 210.504 513.719 219.613 513.719H302.194C311.302 513.719 318.71 506.312 318.71 497.203V480.687C318.71 474.023 314.721 468.292 309.015 465.691L294.646 408.173L326.968 365.074ZM279.228 414.623H242.579L230.191 464.171H291.615L279.228 414.623ZM240.258 398.107H281.548L293.935 381.59H227.871L240.258 398.107ZM283.241 365.074C280.202 355.305 271.242 348.558 260.903 348.558C250.564 348.558 241.604 355.305 238.565 365.074H283.241ZM219.613 480.687V497.203H302.202L302.194 480.687H219.613Z" fill="#434343"/>
<path fill-rule="evenodd" clip-rule="evenodd" d="M483.968 365.074H457.377L456.691 362.333C452.926 347.245 442.339 336.413 426.161 333C419.85 331.669 415.956 331.669 409.645 333C393.467 336.413 382.881 347.245 379.115 362.333L378.43 365.074H351.839L384.161 408.173L369.792 465.691C364.085 468.292 360.097 474.023 360.097 480.687V497.203C360.097 506.312 367.504 513.719 376.613 513.719H459.194C468.302 513.719 475.71 506.312 475.71 497.203V480.687C475.71 474.023 471.721 468.292 466.015 465.691L451.646 408.173L483.968 365.074ZM436.228 414.623H399.579L387.192 464.171H448.615L436.228 414.623ZM397.258 398.107H438.548L450.935 381.59H384.871L397.258 398.107ZM440.241 365.074C437.202 355.305 428.242 348.558 417.903 348.558C407.564 348.558 398.604 355.305 395.565 365.074H440.241ZM376.613 480.687V497.203H459.202L459.194 480.687H376.613Z" fill="#434343"/>
</g>
<defs>
<clipPath id="clip0_9_136">
<rect width="512" height="512" fill="white"/>
</clipPath>
</defs>
</svg>
